<svg version="1.1" xmlns="http://www.w3.org/2000/svg" viewBox="0 0 1641.6678802205356 1089.2473382003532" width="1641.6678802205356" height="1089.2473382003532" filter="invert(93%) hue-rotate(180deg)">
  <!-- svg-source:excalidraw -->
  
  <defs>
    <style>
      @font-face {
        font-family: "Virgil";
        src: url("https://excalidraw.com/Virgil.woff2");
      }
      @font-face {
        font-family: "Cascadia";
        src: url("https://excalidraw.com/Cascadia.woff2");
      }
    </style>
  </defs>
  <rect x="0" y="0" width="1641.6678802205356" height="1089.2473382003532" fill="#ffffff"></rect><g stroke-linecap="round" transform="translate(903.7237857599146 259.0773113341039) rotate(0 64 20.5)"><path d="M-1.72 1.91 C32.3 -1.22, 64.06 -1.58, 127.93 -0.2 M-0.98 -0.45 C26.13 0.03, 51.32 1.91, 128.24 -0.27 M129.45 1.3 C127.1 12.48, 130 20.89, 128.62 39.03 M127.25 -0.72 C128.63 11.34, 127.42 23.28, 128.9 41.66 M126.24 39.5 C99.27 40.29, 67.63 39.78, -1.93 39.58 M128.86 41.22 C84.21 40.11, 41.03 39.97, 0.09 40.59 M-1.43 39.87 C-1 31.43, 1.45 25.14, -1.37 0.81 M0.77 41.96 C0.97 25.01, 1 8.53, -0.57 -0.32" stroke="#862e9c" stroke-width="2" fill="none"></path></g><g transform="translate(925.7237857599146 267.5773113341039) rotate(0 42 12)"><text x="42" y="19" font-family="Cascadia, Segoe UI Emoji" font-size="20px" fill="#862e9c" text-anchor="middle" style="white-space: pre;" direction="ltr">Usuario</text></g><g stroke-linecap="round" transform="translate(1121.9475274027625 266.9532778305793) rotate(0 66 20)"><path d="M-1.83 -1.35 C36.77 -1.55, 70.44 -1.39, 133.52 1.06 M0.81 -0.79 C30.74 0.62, 63.61 0.64, 132.47 -0.88 M130.28 -1.11 C131.83 9.9, 131.09 23.18, 131.45 38.66 M131.57 -0.39 C131.52 8.19, 131.58 17.25, 131.56 40.45 M130.26 40.62 C86.29 40.17, 40.48 41.75, 1.13 40.34 M132.04 40.77 C87.95 38.67, 41.63 39.56, 0.27 39.42 M0.64 41.46 C0.15 25.89, -0.99 15.41, 0.19 0.93 M-0.64 39.63 C-0.36 31.33, 0.54 19.9, 0.42 -0.33" stroke="#862e9c" stroke-width="2" fill="none"></path></g><g transform="translate(1169.4475274027625 274.9532778305793) rotate(0 18.5 12)"><text x="18.5" y="19" font-family="Cascadia, Segoe UI Emoji" font-size="20px" fill="#862e9c" text-anchor="middle" style="white-space: pre;" direction="ltr">rol</text></g><g stroke-linecap="round" transform="translate(745.6649380445308 579.8085405541397) rotate(0 171.5 18.5)"><path d="M0.66 -0.59 C107.46 -2.75, 214.72 -1.13, 343.67 0.11 M-0.59 -0.18 C98.78 1.34, 197.63 1.71, 342.97 0.47 M342.16 -1.7 C342.08 9.12, 343.85 20.8, 341.25 37.99 M342.13 -0.22 C342.49 11.69, 343.17 24.04, 342.72 36.38 M343.44 37 C254.39 34.39, 165.41 34.51, -0.6 36.94 M343.07 37.01 C224.28 38.89, 105.41 39.14, 0.54 36.35 M1.38 37.55 C-0.49 27.16, 1.37 18.27, 0.34 0.88 M-0.74 37.46 C0.02 22.38, -0.03 7.37, 0.46 0.39" stroke="#087f5b" stroke-width="2" fill="none"></path></g><g transform="translate(781.1649380445308 586.3085405541397) rotate(0 136 12)"><text x="136" y="19" font-family="Cascadia, Segoe UI Emoji" font-size="20px" fill="#087f5b" text-anchor="middle" style="white-space: pre;" direction="ltr">equipo_evento_deportivo</text></g><g stroke-linecap="round" transform="translate(654.5291206611105 278.37904851053804) rotate(0 65 17.5)"><path d="M0.87 -1.39 C50.3 2.24, 98.69 1.21, 129.46 -0.14 M-0.88 0.57 C36.47 0.59, 74.64 -0.84, 129.82 -0.51 M128.36 1.5 C130.1 8.66, 127.95 17.42, 130.02 33.33 M129.91 0.02 C129.18 7.22, 129.56 13.87, 130.53 34.63 M130.48 35.77 C84.5 37.13, 42.62 35.67, 0.67 35.82 M129.95 35.67 C101.91 34.35, 74.07 34.68, -0.12 34.43 M1.51 34.4 C-0.43 28.8, 0.52 18.73, -0.89 0.29 M0.33 34.95 C-0.97 27.8, 0.35 19.86, -0.17 -0.25" stroke="#087f5b" stroke-width="2" fill="none"></path></g><g transform="translate(677.5291206611105 283.87904851053804) rotate(0 42 12)"><text x="42" y="19" font-family="Cascadia, Segoe UI Emoji" font-size="20px" fill="#087f5b" text-anchor="middle" style="white-space: pre;" direction="ltr">deporte</text></g><g stroke-linecap="round" transform="translate(1250.2536663581054 458.9564024057031) rotate(0 58.18181818181819 21.81818181818184)"><path d="M-0.73 -1.69 C32.78 0.34, 65.37 1.73, 117.1 -1.24 M-0.94 -0.12 C33.64 0.49, 67.68 -0.1, 116.15 -0.39 M117.6 -1.84 C115.7 13.37, 116.66 23.29, 116.7 42.36 M116.97 -0.96 C115.6 15.88, 115.36 32.04, 116.08 44.62 M116.02 42.84 C78.12 44.93, 42.32 43.1, 1.44 43.28 M115.97 44.39 C83.41 41.61, 52.15 42.03, 0.59 43.73 M-1.33 42.09 C-0.86 32.17, 0.7 20, -0.83 0.18 M0.63 42.82 C0.06 32.8, -0.39 19.56, -0.06 0.85" stroke="#862e9c" stroke-width="2" fill="none"></path></g><g transform="translate(1272.4354845399237 468.774584223885) rotate(0 36 12)"><text x="36" y="19" font-family="Cascadia, Segoe UI Emoji" font-size="20px" fill="#862e9c" text-anchor="middle" style="white-space: pre;" direction="ltr">equipo</text></g><g stroke-linecap="round" transform="translate(1270.2191659741684 339.6738385616172) rotate(0 64 17)"><path d="M0.21 -1.46 C25.65 -0.73, 53.12 0.08, 127.39 -1.09 M-0.92 0.67 C32.07 -0.16, 66.42 -0.41, 128.13 0.98 M129.44 -1.91 C127.08 9.96, 129 16.69, 128.45 35.63 M128.45 0.22 C127.9 7.5, 128.98 16.21, 127.98 34.28 M126.87 32.11 C76.21 33.78, 27.33 35.78, -0.76 35.17 M128.95 34.57 C97.25 34.79, 67.24 35.69, 0.47 33.35 M-1.04 32.18 C-0.81 23.79, 0.94 12.07, 1.12 -0.43 M-0.27 34.71 C1.09 24.79, -0.82 15.86, -0.17 0.4" stroke="#862e9c" stroke-width="2" fill="none"></path></g><g transform="translate(1292.2191659741684 344.6738385616172) rotate(0 42 12)"><text x="42" y="19" font-family="Cascadia, Segoe UI Emoji" font-size="20px" fill="#862e9c" text-anchor="middle" style="white-space: pre;" direction="ltr">permiso</text></g><g stroke-linecap="round" transform="translate(338.89094714707863 282.5272445702461) rotate(0 117.5 17.5)"><path d="M0.57 0.95 C82.17 -0.67, 162.6 -2.52, 235.27 0.56 M-0.02 -0.75 C70.5 0.28, 141.71 0.01, 235.43 0.83 M233.36 1.95 C234.32 12.3, 234.06 24.16, 234.46 36.32 M234.82 -0.07 C234.66 8.31, 234.05 15.37, 235.71 34.4 M235.11 36.68 C187.61 33.74, 137.66 34.72, 0.8 34.36 M234.89 34.87 C147.1 33.56, 60.54 33.97, -0.64 34.75 M-1.39 36.32 C-0.51 24.18, -1.41 14.14, -0.59 1.14 M-0.3 35.25 C-0.08 20.99, 0.88 7.57, -0.85 0.53" stroke="#087f5b" stroke-width="2" fill="none"></path></g><g transform="translate(343.89094714707863 288.0272445702461) rotate(0 112.5 12)"><text x="112.5" y="19" font-family="Cascadia, Segoe UI Emoji" font-size="20px" fill="#087f5b" text-anchor="middle" style="white-space: pre;" direction="ltr">estadistica_deporte</text></g><g stroke-linecap="round" transform="translate(560.2885190514094 444.78899194022574) rotate(0 110.5 21.5)"><path d="M1.42 1.42 C57.83 1.86, 116.74 1.24, 222.48 -0.13 M-0.02 -0.29 C54.63 0.11, 110.35 0.69, 220.34 -0.84 M222.42 0.94 C221.66 11.34, 220.99 23.97, 220.81 41.3 M221.27 -0.07 C220.81 12.11, 220.06 23.25, 220.88 43.1 M219.86 43.94 C153.29 44.39, 81.71 44.14, -1.02 42.32 M221.4 43.77 C175.08 43.44, 128.48 44.15, 0.09 43.66 M0.32 41.56 C-0.13 28.94, -1.52 16.8, -0.86 -1.76 M0.14 43.6 C-0.31 29.85, 0.3 16.14, -0.83 0.05" stroke="#087f5b" stroke-width="2" fill="none"></path></g><g transform="translate(575.7885190514094 454.28899194022574) rotate(0 95 12)"><text x="95" y="19" font-family="Cascadia, Segoe UI Emoji" font-size="20px" fill="#087f5b" text-anchor="middle" style="white-space: pre;" direction="ltr">evento_deportivo</text></g><g stroke-linecap="round" transform="translate(835.1826791818798 451.2257790081718) rotate(0 146.5 18.5)"><path d="M1.35 -0.34 C59.03 -0.01, 118.71 -0.94, 293.46 -1.02 M0.69 -0.24 C66.85 -1.82, 133.81 -1.83, 292.83 -0.47 M291.16 -0.4 C291.8 13.29, 293.66 26.31, 291.39 37.02 M292.41 0.48 C293.51 8.39, 293.56 15.14, 293.66 37.59 M292.48 37.21 C213.98 36.7, 136.47 38.99, -0.87 35.51 M293.16 36.87 C218.25 35.11, 141.94 35.07, 0.34 36.96 M1.7 36.3 C1.5 24.21, -0.03 12.85, -0.63 1.92 M-0.74 37.02 C0.42 22, -0.96 7.09, -0.96 0.5" stroke="#087f5b" stroke-width="2" fill="none"></path></g><g transform="translate(840.1826791818798 457.7257790081718) rotate(0 141.5 12)"><text x="141.5" y="19" font-family="Cascadia, Segoe UI Emoji" font-size="20px" fill="#087f5b" text-anchor="middle" style="white-space: pre;" direction="ltr">formato_evento_deportivo</text></g><g stroke-linecap="round" transform="translate(591.6395691977164 771.3801638575142) rotate(0 64 18.5)"><path d="M-0.16 1.13 C48.22 -1.1, 95.45 -2.59, 126.24 -0.99 M-0.38 0.1 C41.12 0.52, 83.27 2.07, 128.09 -0.29 M129.49 -1.97 C128.92 13.62, 127.3 25.66, 129.18 35.15 M128.16 -0.94 C127.62 12.13, 127.89 23.09, 127.45 36.39 M126.83 38.5 C91.62 37.24, 59.74 35.2, 1.45 36.85 M127.49 36.41 C78.18 36.97, 26.73 37.33, -0.33 37.99 M-1.94 38.13 C0.46 27.75, -1.42 19.42, 1.64 -1.34 M0.52 36.54 C-0.32 27.44, 0.33 18.65, 0.02 0.85" stroke="#087f5b" stroke-width="2" fill="none"></path></g><g transform="translate(613.6395691977164 777.8801638575142) rotate(0 42 12)"><text x="42" y="19" font-family="Cascadia, Segoe UI Emoji" font-size="20px" fill="#087f5b" text-anchor="middle" style="white-space: pre;" direction="ltr">partido</text></g><g stroke-linecap="round" transform="translate(555.5778248509009 913.7340317046401) rotate(0 178 20.5)"><path d="M0.35 -0.62 C111.35 -0.39, 222.08 -1.44, 355.28 -0.61 M0.26 0.55 C90.33 0.76, 180.8 0.68, 355.95 0.3 M357.61 1.94 C357.23 9.7, 356.24 18.48, 354.05 40.43 M356.07 -0.55 C355.72 13.78, 356.37 27.69, 355.79 41.27 M355.62 40.42 C283.41 42.86, 213 43.29, -0.41 42.06 M356.42 41.39 C228.27 40.15, 101.14 39.17, 0.21 41.52 M-1.04 42.63 C1.57 30.49, -1.6 21.43, -0.01 -1.94 M0.72 40.86 C-0.22 30.18, -0.13 20.16, 0.56 -0.56" stroke="#087f5b" stroke-width="2" fill="none"></path></g><g transform="translate(574.5778248509009 922.2340317046401) rotate(0 159 12)"><text x="159" y="19" font-family="Cascadia, Segoe UI Emoji" font-size="20px" fill="#087f5b" text-anchor="middle" style="white-space: pre;" direction="ltr">estadistica_jugador_partido</text></g><g stroke-linecap="round" transform="translate(1180.4146708569049 858.5296231937823) rotate(0 64 18.5)"><path d="M1.05 -0.23 C33.64 -0.17, 64.49 2.82, 128.12 -0.78 M0.05 0.16 C45.64 -0.21, 92.85 0.54, 128.22 0.29 M126.73 -1.1 C129.42 6.9, 128.18 18.05, 127.98 35.99 M127.77 0.77 C128.94 8.22, 127.61 16.14, 127.83 37.47 M129.01 38.1 C88.94 37.93, 49.89 35.96, -0.01 35.91 M127.93 36.81 C94.28 36.37, 58.68 36.43, -0.09 37.89 M-0.46 37.27 C1.21 25.4, 1.54 19.44, 1.03 -1.95 M0.75 37.2 C0.32 25.96, -0.11 15.21, 0.12 0.81" stroke="#862e9c" stroke-width="2" fill="none"></path></g><g transform="translate(1208.4146708569049 865.0296231937823) rotate(0 36 12)"><text x="36" y="19" font-family="Cascadia, Segoe UI Emoji" font-size="20px" fill="#862e9c" text-anchor="middle" style="white-space: pre;" direction="ltr">estado</text></g><g stroke-linecap="round" transform="translate(215.54987205930007 442.42905893871387) rotate(0 135.5 20)"><path d="M0.14 0.69 C54.98 1.11, 110.73 0.26, 271.79 0.58 M0.57 -0.23 C77.29 -1.33, 156.51 -1.48, 271.07 0.09 M271.3 -1.15 C271.24 9.28, 270.5 15.33, 272.15 39.52 M271 0.62 C271.31 8.53, 271.89 17.85, 271.64 39.31 M269.89 39.55 C172.72 40.64, 74.6 40.82, -0.84 38.69 M271.54 40.18 C181.42 40.03, 90.98 40.27, -0.29 39.34 M1.92 40.73 C-1.34 28.85, 1.82 18.55, -1.89 -0.25 M0.23 39.78 C-0.71 29.45, -0.06 19.02, 0.62 -0.92" stroke="#087f5b" stroke-width="2" fill="none"></path></g><g transform="translate(227.04987205930007 450.42905893871387) rotate(0 124 12)"><text x="124" y="19" font-family="Cascadia, Segoe UI Emoji" font-size="20px" fill="#087f5b" text-anchor="middle" style="white-space: pre;" direction="ltr">pago_evento_deportivo</text></g><g stroke-linecap="round" transform="translate(284.16459920634924 775.7989048300594) rotate(0 117.5 17.49999999999997)"><path d="M-0.77 -1.19 C64.93 0.01, 127.46 -1.09, 234.22 -0.8 M-0.8 -0.17 C67.41 -1.72, 136.53 -0.53, 234.9 0.57 M235.93 0.61 C236.82 10.08, 234.95 25.1, 234.18 36.8 M235.32 -0.12 C234.33 6.97, 235.65 15.94, 235.3 35.84 M235.54 33.92 C169.32 36.13, 104.99 34.26, -0.9 34.39 M234.73 35.26 C162.6 33.81, 90.26 33.34, -0.05 35.47 M1.52 33.17 C-1.12 23.17, -1.15 11.72, -0.89 1.56 M-0.2 35.78 C0.98 27.51, 0.55 18.1, -0.07 -0.58" stroke="#087f5b" stroke-width="2" fill="none"></path></g><g transform="translate(289.16459920634924 781.2989048300594) rotate(0 112.5 11.999999999999972)"><text x="112.5" y="19" font-family="Cascadia, Segoe UI Emoji" font-size="20px" fill="#087f5b" text-anchor="middle" style="white-space: pre;" direction="ltr">estadistica_partido</text></g><g stroke-linecap="round" transform="translate(297.47131463819284 569.9868712284418) rotate(0 164 17)"><path d="M-0.98 -0.67 C66.67 -0.92, 132.51 -0.55, 328.09 0.56 M0.2 -0.27 C104.64 -0.08, 209.15 -0.41, 328.05 0.26 M326.77 -1.77 C326.37 14.97, 327.97 25.35, 326.7 33.9 M328.46 0.7 C327.94 8.16, 327.5 15.4, 328.91 33.95 M327.41 35.19 C230.03 34.59, 133.65 32.3, -0.16 34.34 M328.06 33.47 C239.8 35, 151.3 36.34, -0.57 34.22 M1.24 35.86 C0.8 22.07, 0.27 14.35, -0.61 1.09 M-0.83 33.61 C-0.22 25.86, 0.05 16.38, 0.06 -0.65" stroke="#087f5b" stroke-width="2" fill="none"></path></g><g transform="translate(319.97131463819284 574.9868712284418) rotate(0 141.5 12)"><text x="141.5" y="19" font-family="Cascadia, Segoe UI Emoji" font-size="20px" fill="#087f5b" text-anchor="middle" style="white-space: pre;" direction="ltr">usuario_evento_deportivo</text></g><g stroke-linecap="round" transform="translate(1348.831909534102 207.69553855519058) rotate(0 93.00000000000006 22)"><path d="M-1.41 -1.46 C70.63 2.54, 143.46 2.74, 187.95 0.48 M-0.66 -0.75 C69.69 -0.4, 140.02 0.14, 186.04 0.54 M185.06 -1.18 C184.09 15.69, 186.33 33.46, 187.54 42.65 M186.19 -0.4 C187 15.17, 185.3 31.77, 185.45 44.88 M184.21 44.17 C126.21 46.93, 65.47 45.68, -0.79 45.91 M186.68 43.09 C119.16 41.64, 53.61 43.28, 0.27 44.98 M-1.51 42.91 C1.48 34.99, -0.77 22.29, 0.64 0.01 M0.19 43.3 C0.9 32.2, 0.25 21.05, 0.69 0.27" stroke="#862e9c" stroke-width="2" fill="none"></path></g><g transform="translate(1376.331909534102 217.69553855519058) rotate(0 65.50000000000006 12)"><text x="65.5" y="19" font-family="Cascadia, Segoe UI Emoji" font-size="20px" fill="#862e9c" text-anchor="middle" style="white-space: pre;" direction="ltr">permiso_rol</text></g><g stroke-linecap="round" transform="translate(752.2766536921795 699.5697584387291) rotate(0 210.49999999999997 17)"><path d="M-0.79 -0.77 C108.69 2.85, 219.79 2.21, 420.19 -0.67 M0.11 -0.29 C135.96 1.2, 271.56 1.13, 420.72 -0.46 M421.66 -1.99 C419.67 13.14, 419.92 23.31, 419.84 34.14 M420.78 -0.62 C421.05 7.03, 421.56 15.73, 420.43 33.86 M420.72 34.59 C331.87 32.95, 241.22 32.73, -0.99 33.97 M421.21 34.31 C269.4 36.45, 118.71 36.14, 0.12 34.39 M-1.63 32.23 C-0.36 28.13, 0.69 17.72, -0.23 1.04 M-0.67 34.92 C0.44 24.89, -0.34 16.49, 0.27 0.94" stroke="#087f5b" stroke-width="2" fill="none"></path></g><g transform="translate(768.2766536921795 704.5697584387291) rotate(0 194.49999999999997 12)"><text x="194.5" y="19" font-family="Cascadia, Segoe UI Emoji" font-size="20px" fill="#087f5b" text-anchor="middle" style="white-space: pre;" direction="ltr">migracion_equipo_evento_deportivo</text></g><g stroke-linecap="round"><g transform="translate(1256.4487157658173 287.28417533052203) rotate(0 48.848985839950046 -23.990042500780163)"><path d="M-0.09 0.38 C7.46 -5.04, 33.16 -25.84, 44.82 -31.58 C56.47 -37.32, 60.75 -31.27, 69.83 -34.06 C78.91 -36.86, 94.05 -45.94, 99.3 -48.36 M-1.6 -0.47 C6.36 -5.87, 35.12 -24.72, 47 -30.65 C58.88 -36.57, 61.02 -33.26, 69.69 -36.02 C78.36 -38.78, 93.9 -45.16, 99 -47.2" stroke="#000000" stroke-width="2" fill="none"></path></g><g transform="translate(1256.4487157658173 287.28417533052203) rotate(0 48.848985839950046 -23.990042500780163)"><path d="M86.7 -37.14 C87.74 -36.96, 93.81 -43.14, 99.16 -45.79 M86.79 -35.17 C90.03 -39.47, 94.5 -42.09, 99.78 -47.11" stroke="#000000" stroke-width="2" fill="none"></path></g><g transform="translate(1256.4487157658173 287.28417533052203) rotate(0 48.848985839950046 -23.990042500780163)"><path d="M82.3 -48.09 C84.58 -45.05, 91.78 -48.39, 99.16 -45.79 M82.39 -46.12 C86.82 -47.27, 92.57 -46.69, 99.78 -47.11" stroke="#000000" stroke-width="2" fill="none"></path></g></g><g stroke-linecap="round"><g transform="translate(1434.4979400360362 254.1236383186236) rotate(0 -16.61321484093287 51.23106086195928)"><path d="M-0.37 1.12 C-6.29 17.94, -28.53 83.6, -34.33 100.36 M1.63 0.66 C-4.47 17.72, -28.59 85.25, -34.86 101.8" stroke="#000000" stroke-width="2" fill="none"></path></g><g transform="translate(1434.4979400360362 254.1236383186236) rotate(0 -16.61321484093287 51.23106086195928)"><path d="M-32.93 73.12 C-35.27 83.59, -33.08 94.29, -35.62 101.46 M-35.31 72.49 C-35.14 79.81, -33.96 89.95, -33.92 101.57" stroke="#000000" stroke-width="2" fill="none"></path></g><g transform="translate(1434.4979400360362 254.1236383186236) rotate(0 -16.61321484093287 51.23106086195928)"><path d="M-13.66 80.17 C-23.6 87.79, -29.05 95.7, -35.62 101.46 M-16.04 79.55 C-21.54 84.74, -26.04 92.8, -33.92 101.57" stroke="#000000" stroke-width="2" fill="none"></path></g></g><g stroke-linecap="round"><g transform="translate(649.8465443746329 292.3097029527034) rotate(0 -52.22382194308921 10.976375290967571)"><path d="M-0.6 -0.7 C-18.24 2.9, -88.15 18.66, -105.73 22.65 M1.28 1.55 C-15.97 5.3, -85.88 17.41, -103.38 20.71" stroke="#000000" stroke-width="2" fill="none"></path></g><g transform="translate(649.8465443746329 292.3097029527034) rotate(0 -52.22382194308921 10.976375290967571)"><path d="M-78.63 4.45 C-84.73 8.4, -91.75 14.57, -105.34 18.74 M-76.62 5.26 C-85.85 9.92, -95.73 15.56, -103.91 21.51" stroke="#000000" stroke-width="2" fill="none"></path></g><g transform="translate(649.8465443746329 292.3097029527034) rotate(0 -52.22382194308921 10.976375290967571)"><path d="M-74.98 24.65 C-82.38 22.35, -90.52 22.31, -105.34 18.74 M-72.97 25.45 C-83.66 23, -94.82 21.54, -103.91 21.51" stroke="#000000" stroke-width="2" fill="none"></path></g></g><g stroke-linecap="round"><g transform="translate(690.0434142777722 307.5009250619639) rotate(0 -6.594146102332985 64.84349820126475)"><path d="M-0.69 0.02 C-0.91 -0.09, 1.84 -23.41, -0.62 -0.23 C-3.09 22.96, -13.05 115.69, -15.48 139.13 M1.15 -1.02 C1.27 -0.97, 4.64 -22.34, 1.76 1.19 C-1.12 24.73, -13.37 117.33, -16.11 140.18" stroke="#000000" stroke-width="2" fill="none"></path></g><g transform="translate(690.0434142777722 307.5009250619639) rotate(0 -6.594146102332985 64.84349820126475)"><path d="M-22.71 109.88 C-20.64 121.89, -18.76 132.87, -14.8 141.91 M-22.98 110.25 C-20.65 116.13, -20.69 122.23, -16.64 139.31" stroke="#000000" stroke-width="2" fill="none"></path></g><g transform="translate(690.0434142777722 307.5009250619639) rotate(0 -6.594146102332985 64.84349820126475)"><path d="M-2.35 112.46 C-7.6 123.42, -13.02 133.48, -14.8 141.91 M-2.62 112.83 C-4.39 118.03, -8.53 123.6, -16.64 139.31" stroke="#000000" stroke-width="2" fill="none"></path></g></g><g stroke-linecap="round"><g transform="translate(784.0659221920635 465.85093221135185) rotate(0 36.55835849112549 1.9095026234961665)"><path d="M1.18 0.13 C13.32 0.63, 60.7 3.13, 72.77 3.74 M0.35 -0.85 C12.29 -0.31, 59.49 3.76, 71.61 4.67" stroke="#000000" stroke-width="2" fill="none"></path></g><g transform="translate(784.0659221920635 465.85093221135185) rotate(0 36.55835849112549 1.9095026234961665)"><path d="M42.9 11.96 C49.3 10.74, 58.05 7.65, 73.51 3.57 M43.6 12.7 C51.45 10.93, 60.81 7.23, 71.6 4.53" stroke="#000000" stroke-width="2" fill="none"></path></g><g transform="translate(784.0659221920635 465.85093221135185) rotate(0 36.55835849112549 1.9095026234961665)"><path d="M44.55 -8.49 C50.58 -3.61, 58.84 -0.62, 73.51 3.57 M45.24 -7.75 C52.59 -3.2, 61.43 -0.58, 71.6 4.53" stroke="#000000" stroke-width="2" fill="none"></path></g></g><g stroke-linecap="round"><g transform="translate(568.0895025752352 476.6628025848379) rotate(0 -15.569367957865879 50.040852233033505)"><path d="M-0.83 -0.97 C-6.14 15.94, -27.06 83.99, -32.08 101.05 M0.94 1.14 C-3.96 17.73, -24.29 82.9, -29.68 99.31" stroke="#000000" stroke-width="2" fill="none"></path></g><g transform="translate(568.0895025752352 476.6628025848379) rotate(0 -15.569367957865879 50.040852233033505)"><path d="M-32.51 68.33 C-29.43 78.74, -28.49 86.16, -28.09 100.85 M-31.75 68.41 C-31.48 80.21, -30.85 91.52, -30.61 99.24" stroke="#000000" stroke-width="2" fill="none"></path></g><g transform="translate(568.0895025752352 476.6628025848379) rotate(0 -15.569367957865879 50.040852233033505)"><path d="M-12.96 74.56 C-15.38 83.08, -19.96 88.74, -28.09 100.85 M-12.19 74.64 C-19.26 84.12, -26.02 93.08, -30.61 99.24" stroke="#000000" stroke-width="2" fill="none"></path></g></g><g stroke-linecap="round" transform="translate(1038.2021622027562 150.149149769088) rotate(0 73 27.5)"><path d="M-1.07 1.97 C46.04 0.27, 90.53 2.03, 147.62 0.52 M0.1 -0.45 C28.75 0.09, 58.71 1.57, 145.15 0.34 M146.19 1.68 C144.94 16.25, 145.22 33.41, 144.51 54.08 M145.89 -0.56 C145.82 19.82, 146.84 39.05, 145.18 55.79 M146.92 54.24 C111.08 54.76, 76.29 54.66, -0.24 56.76 M145.67 54.65 C114.69 53.06, 84.75 53.77, 0.47 55.09 M0.08 55.29 C-0.91 38.17, -1.01 19.29, -0.72 0.99 M0.97 54.05 C-0.38 38.3, 0.33 19.9, -0.88 0.39" stroke="#862e9c" stroke-width="2" fill="none"></path></g><g transform="translate(1045.7021622027562 165.649149769088) rotate(0 65.5 12)"><text x="65.5" y="19" font-family="Cascadia, Segoe UI Emoji" font-size="20px" fill="#862e9c" text-anchor="middle" style="white-space: pre;" direction="ltr">rol_usuario</text></g><g stroke-linecap="round"><g transform="translate(1022.4661735959774 254.39196351408395) rotate(0 19.527793535923138 -28.220969803501454)"><path d="M-0.82 -0.05 C5.81 -8.98, 33.26 -45.25, 39.87 -54.55 M0.95 -1.12 C7.45 -10.33, 33.05 -47.43, 39.21 -56.39" stroke="#000000" stroke-width="2" fill="none"></path></g><g transform="translate(1022.4661735959774 254.39196351408395) rotate(0 19.527793535923138 -28.220969803501454)"><path d="M31.58 -26.46 C35.13 -37.08, 35.33 -46.44, 40.25 -55.94 M32.04 -27.58 C32.84 -33.72, 33.9 -38.06, 40.18 -57.2" stroke="#000000" stroke-width="2" fill="none"></path></g><g transform="translate(1022.4661735959774 254.39196351408395) rotate(0 19.527793535923138 -28.220969803501454)"><path d="M14.68 -38.11 C23.39 -44.99, 28.85 -50.73, 40.25 -55.94 M15.14 -39.22 C19.34 -43.12, 23.77 -45.13, 40.18 -57.2" stroke="#000000" stroke-width="2" fill="none"></path></g></g><g stroke-linecap="round"><g transform="translate(1193.5950496946984 274.0619492725576) rotate(0 -18.83456913083768 -34.20051100671518)"><path d="M-1.04 -0.38 C-7.2 -11.59, -31.46 -54.96, -37.49 -66.23 M0.61 -1.63 C-5.62 -12.67, -31.89 -57.08, -38.28 -68.02" stroke="#364fc7" stroke-width="2" fill="none"></path></g><g transform="translate(1193.5950496946984 274.0619492725576) rotate(0 -18.83456913083768 -34.20051100671518)"><path d="M-15.78 -48.42 C-20.09 -53.02, -28.86 -60.18, -38.22 -67.19 M-15.89 -49.79 C-24.44 -54.79, -31 -61.6, -37.45 -67.91" stroke="#364fc7" stroke-width="2" fill="none"></path></g><g transform="translate(1193.5950496946984 274.0619492725576) rotate(0 -18.83456913083768 -34.20051100671518)"><path d="M-33.48 -38.02 C-33.4 -45.09, -37.71 -54.87, -38.22 -67.19 M-33.58 -39.39 C-35.97 -48.13, -36.27 -58.62, -37.45 -67.91" stroke="#364fc7" stroke-width="2" fill="none"></path></g></g><g stroke-linecap="round" transform="translate(1427.6678802205356 462.9019233288194) rotate(0 102 19.5)"><path d="M1.26 0.87 C68.74 -1.18, 134.05 -1.3, 203.42 -0.94 M-0.85 -0.69 C65.32 0.13, 129.58 0.54, 204.13 -0.44 M203.38 -1.13 C203.01 10.82, 205.33 21.67, 205.43 40.98 M203.14 -0.9 C203.56 10.88, 203.2 20.86, 204.05 39.29 M205.36 40.05 C138.1 38.33, 70 38.44, -1.23 40.01 M204.47 39.52 C124.34 37.67, 43.25 36.97, 0.54 39.15 M-0.11 38.41 C0.18 27.78, 0.73 16.06, 0.18 1.11 M0.23 39.76 C1.08 26.36, 0.22 14.54, 0.27 0.6" stroke="#862e9c" stroke-width="2" fill="none"></path></g><g transform="translate(1446.6678802205356 470.4019233288194) rotate(0 83 12)"><text x="83" y="19" font-family="Cascadia, Segoe UI Emoji" font-size="20px" fill="#862e9c" text-anchor="middle" style="white-space: pre;" direction="ltr">jugador_equipo</text></g><g stroke-linecap="round"><g transform="translate(1348.9879371866407 486.4977954640733) rotate(0 42.452893188122346 4.742976268645762)"><path d="M-0.13 0.01 C14.44 1.71, 72.25 8.88, 86.57 10.52 M-1.66 -1.03 C12.84 0.3, 70.64 6.73, 85.63 8.76" stroke="#000000" stroke-width="2" fill="none"></path></g><g transform="translate(1348.9879371866407 486.4977954640733) rotate(0 42.452893188122346 4.742976268645762)"><path d="M56.42 15.58 C64.13 12.8, 69.56 12.55, 87 8.66 M55.62 15.52 C65.5 14.12, 72.74 12.58, 86 8.32" stroke="#000000" stroke-width="2" fill="none"></path></g><g transform="translate(1348.9879371866407 486.4977954640733) rotate(0 42.452893188122346 4.742976268645762)"><path d="M58.89 -4.79 C66.09 -2.98, 70.97 1.37, 87 8.66 M58.09 -4.85 C67.43 -0.53, 73.97 3.67, 86 8.32" stroke="#000000" stroke-width="2" fill="none"></path></g></g><g stroke-linecap="round"><g transform="translate(1043.3276630061084 573.8757310811252) rotate(0 -16.163834422545335 6.943351790367387)"><path d="M0.5 1.04 C-4.88 3.46, -26.6 11.51, -32.15 13.35 M-0.7 0.54 C-6.21 2.69, -27.33 9.37, -32.82 11.44" stroke="#000000" stroke-width="2" fill="none"></path></g><g transform="translate(1043.3276630061084 573.8757310811252) rotate(0 -16.163834422545335 6.943351790367387)"><path d="M-17.65 1.15 C-22.92 3.68, -29.02 6.1, -33.88 10.9 M-19.78 -0.16 C-24.59 3.73, -29.5 8.3, -32.02 11.58" stroke="#000000" stroke-width="2" fill="none"></path></g><g transform="translate(1043.3276630061084 573.8757310811252) rotate(0 -16.163834422545335 6.943351790367387)"><path d="M-13.74 12.51 C-20.12 11.52, -27.43 10.41, -33.88 10.9 M-15.87 11.2 C-22.1 10.99, -28.41 11.48, -32.02 11.58" stroke="#000000" stroke-width="2" fill="none"></path></g></g><g stroke-linecap="round"><g transform="translate(762.4364593603586 490.4317926157678) rotate(0 43.27571944305171 52.018099455793944)"><path d="M0.89 0.29 C15.07 17.47, 70.37 86.36, 84.3 103.5 M-0.1 -0.6 C14.54 16.68, 72.74 87.23, 86.65 104.64" stroke="#000000" stroke-width="2" fill="none"></path></g><g transform="translate(762.4364593603586 490.4317926157678) rotate(0 43.27571944305171 52.018099455793944)"><path d="M61.38 88.14 C65.73 91.77, 71.15 96.11, 87.08 105.66 M60.91 88.3 C70.86 94.54, 81.39 101.19, 87.24 104.09" stroke="#000000" stroke-width="2" fill="none"></path></g><g transform="translate(762.4364593603586 490.4317926157678) rotate(0 43.27571944305171 52.018099455793944)"><path d="M77.29 75.18 C77.96 81.97, 79.65 89.34, 87.08 105.66 M76.82 75.34 C80.66 86.65, 84.97 98.36, 87.24 104.09" stroke="#000000" stroke-width="2" fill="none"></path></g></g><g stroke-linecap="round"><g transform="translate(668.4064299434508 482.563798312378) rotate(0 11.772480946606564 133.7421340903597)"><path d="M-0.47 0.85 C0.03 1.08, -1.7 -45.59, 2.38 1.96 C6.47 49.51, 20.62 238.5, 24.02 286.13 M1.48 0.25 C1.92 0.63, -2.01 -44.28, 1.66 3.5 C5.32 51.27, 19.98 239.9, 23.47 286.9" stroke="#000000" stroke-width="2" fill="none"></path></g><g transform="translate(668.4064299434508 482.563798312378) rotate(0 11.772480946606564 133.7421340903597)"><path d="M12.51 260.26 C14.28 267.07, 15.6 271.77, 24.41 286.26 M10.62 259.33 C15.33 268.17, 20.56 278.44, 24.28 287.38" stroke="#000000" stroke-width="2" fill="none"></path></g><g transform="translate(668.4064299434508 482.563798312378) rotate(0 11.772480946606564 133.7421340903597)"><path d="M32.97 258.7 C29.69 265.81, 25.94 270.91, 24.41 286.26 M31.08 257.77 C28.8 267.08, 27.04 277.88, 24.28 287.38" stroke="#000000" stroke-width="2" fill="none"></path></g></g><g stroke-linecap="round"><g transform="translate(583.0387637853141 792.8642159607834) rotate(0 -36.76367139058908 0.09873802738542281)"><path d="M-1.12 0.08 C-13.25 -0.03, -61.43 -0.23, -73.38 -0.1 M0.49 -0.93 C-11.7 -0.93, -61.77 0.59, -74.02 1.12" stroke="#000000" stroke-width="2" fill="none"></path></g><g transform="translate(583.0387637853141 792.8642159607834) rotate(0 -36.76367139058908 0.09873802738542281)"><path d="M-46.08 -9.16 C-54.11 -5.66, -59.54 -4.95, -74.16 -0.16 M-46.91 -11.05 C-53.47 -6.7, -61.76 -3.73, -74.08 2.03" stroke="#000000" stroke-width="2" fill="none"></path></g><g transform="translate(583.0387637853141 792.8642159607834) rotate(0 -36.76367139058908 0.09873802738542281)"><path d="M-45.35 11.35 C-53.66 9.7, -59.27 5.28, -74.16 -0.16 M-46.18 9.46 C-53.01 8.21, -61.5 5.58, -74.08 2.03" stroke="#000000" stroke-width="2" fill="none"></path></g></g><g stroke-linecap="round"><g transform="translate(562.188506847694 462.8938125539043) rotate(0 -38.52443343152902 -1.2666263107282418)"><path d="M-0.48 -1 C-0.25 -1.31, 14.35 -0.4, 0.61 -0.86 C-13.12 -1.31, -68.88 -3.39, -82.89 -3.72 M1.46 1.09 C1.66 1.43, 14.2 0.79, -0.02 0.23 C-14.23 -0.33, -69.87 -1.45, -83.81 -2.29" stroke="#000000" stroke-width="2" fill="none"></path></g><g transform="translate(562.188506847694 462.8938125539043) rotate(0 -38.52443343152902 -1.2666263107282418)"><path d="M-56.91 -10.47 C-63.3 -9.91, -68.21 -8.7, -81.99 -3.02 M-55.02 -11.46 C-64.49 -9.31, -73.39 -6.09, -83.24 -1.91" stroke="#000000" stroke-width="2" fill="none"></path></g><g transform="translate(562.188506847694 462.8938125539043) rotate(0 -38.52443343152902 -1.2666263107282418)"><path d="M-57.68 10.04 C-64.06 5.79, -68.79 2.2, -81.99 -3.02 M-55.79 9.04 C-65.08 4.54, -73.72 1.11, -83.24 -1.91" stroke="#000000" stroke-width="2" fill="none"></path></g></g><g stroke-linecap="round"><g transform="translate(681.6938460735316 490.43179261576756) rotate(0 39.15239520943966 108.2081302048328)"><path d="M0.64 -0.8 C13.58 35.22, 63.75 181.09, 76.46 217.21 M-0.49 1.4 C12.94 37.59, 66.04 179.59, 78.79 215.53" stroke="#000000" stroke-width="2" fill="none"></path></g><g transform="translate(681.6938460735316 490.43179261576756) rotate(0 39.15239520943966 108.2081302048328)"><path d="M58.14 191.36 C65.02 196.69, 66.85 202.17, 77.15 213.64 M58.93 192.93 C67.53 202.15, 74.27 211.44, 77.87 215.26" stroke="#000000" stroke-width="2" fill="none"></path></g><g transform="translate(681.6938460735316 490.43179261576756) rotate(0 39.15239520943966 108.2081302048328)"><path d="M77.42 184.31 C80.44 191.18, 78.35 198.09, 77.15 213.64 M78.2 185.88 C79.13 197.91, 78.17 210.01, 77.87 215.26" stroke="#000000" stroke-width="2" fill="none"></path></g></g><g stroke-linecap="round"><g transform="translate(874.941280407425 699.720489108354) rotate(0 12.199247270014439 -42.449154243868605)"><path d="M-0.75 -0.32 C3.38 -14.35, 20.79 -70.65, 25.15 -84.58 M1.05 -1.53 C4.96 -15.32, 20.06 -68.98, 23.98 -83.04" stroke="#000000" stroke-width="2" fill="none"></path></g><g transform="translate(874.941280407425 699.720489108354) rotate(0 12.199247270014439 -42.449154243868605)"><path d="M25.72 -53.83 C25.61 -63.19, 25.95 -72.7, 25.87 -81.19 M26.11 -53.93 C25.75 -64.36, 23.93 -75.6, 24.14 -82.6" stroke="#000000" stroke-width="2" fill="none"></path></g><g transform="translate(874.941280407425 699.720489108354) rotate(0 12.199247270014439 -42.449154243868605)"><path d="M5.96 -59.37 C12.32 -66.79, 19.16 -74.47, 25.87 -81.19 M6.35 -59.47 C13.15 -67.75, 18.5 -76.98, 24.14 -82.6" stroke="#000000" stroke-width="2" fill="none"></path></g></g><g stroke-linecap="round"><g transform="translate(648.7364441849782 809.0855619030422) rotate(0 5.763909305643097 54.131361604577705)"><path d="M1.03 -0.97 C1.24 -0.65, -0.79 -18.81, 1.02 0.86 C2.82 20.52, 10.09 97.78, 11.84 117.03 M0.12 1.14 C0.28 1.22, -1.23 -19.83, 0.6 -0.81 C2.43 18.2, 9.26 95.46, 11.1 115.2" stroke="#000000" stroke-width="2" fill="none"></path></g><g transform="translate(648.7364441849782 809.0855619030422) rotate(0 5.763909305643097 54.131361604577705)"><path d="M-3.28 89.74 C3.11 95.64, 6.9 102.75, 11.6 115.41 M-1.68 88.29 C1.44 95.5, 4.99 103.23, 11.04 114.36" stroke="#000000" stroke-width="2" fill="none"></path></g><g transform="translate(648.7364441849782 809.0855619030422) rotate(0 5.763909305643097 54.131361604577705)"><path d="M17.16 87.89 C17.79 94.49, 15.83 102.11, 11.6 115.41 M18.75 86.43 C16.2 94.26, 14.09 102.5, 11.04 114.36" stroke="#000000" stroke-width="2" fill="none"></path></g></g><g stroke-linecap="round"><g transform="translate(334.8034594741312 300.459118230819) rotate(0 -161.9075388839765 249.7130811394459)"><path d="M0.99 0.57 C-53.12 30.48, -315.2 96.05, -324.53 179.22 C-333.87 262.39, -100.32 446.34, -55.03 499.6 M0.05 -0.17 C-53.72 29.88, -313.63 97.3, -322.43 180.28 C-331.22 263.25, -97.2 444.42, -52.72 497.68" stroke="#000000" stroke-width="2" fill="none"></path></g><g transform="translate(334.8034594741312 300.459118230819) rotate(0 -161.9075388839765 249.7130811394459)"><path d="M-79.21 483.63 C-73.23 487.2, -61.87 494.74, -52.8 499.51 M-79.63 484.96 C-70.18 490.12, -61.28 494.33, -53.69 497.82" stroke="#000000" stroke-width="2" fill="none"></path></g><g transform="translate(334.8034594741312 300.459118230819) rotate(0 -161.9075388839765 249.7130811394459)"><path d="M-65 468.82 C-63.44 477.09, -56.48 489.22, -52.8 499.51 M-65.42 470.16 C-60.97 480.38, -57 489.72, -53.69 497.82" stroke="#000000" stroke-width="2" fill="none"></path></g></g><g stroke-linecap="round" transform="translate(851.7306611956067 351.57782797838706) rotate(0 89 17)"><path d="M-1.29 -1.12 C65.38 1.35, 133.59 -0.89, 176.88 -1.92 M-0.29 0.95 C43.81 -0.53, 88.05 -2.19, 177.33 0.45 M179.82 -1.51 C178.49 6.5, 179.11 15.51, 178.21 35.69 M177.96 0.11 C177.02 11.34, 176.98 22.85, 178.99 33.36 M177.11 35.31 C140.98 33.37, 103.96 32.37, -0.25 34.77 M178.1 33.49 C110.09 34.94, 43.95 34.88, -0.62 33.86 M1.91 35.9 C1.55 25.95, 1.16 17.05, 0.01 -1.67 M0.83 34.07 C-0.23 20.85, 0.54 9.18, 0.54 0.76" stroke="#087f5b" stroke-width="2" fill="none"></path></g><g transform="translate(875.2306611956067 356.57782797838706) rotate(0 65.5 12)"><text x="65.5" y="19" font-family="Cascadia, Segoe UI Emoji" font-size="20px" fill="#087f5b" text-anchor="middle" style="white-space: pre;" direction="ltr">tipo_evento</text></g><g stroke-linecap="round"><g transform="translate(932.1095689574277 392.8847980711819) rotate(0 9.729262089845662 34.16695245674793)"><path d="M0.64 -0.32 C3.67 10.42, 16.68 55.53, 19.23 65.31 C21.78 75.08, 16.7 59.55, 15.94 58.34 M-0.49 -1.54 C2.27 9.27, 15.49 56.23, 18.12 66.44 C20.76 76.65, 15.96 60.95, 15.34 59.72" stroke="#000000" stroke-width="2" fill="none"></path></g><g transform="translate(932.1095689574277 392.8847980711819) rotate(0 9.729262089845662 34.16695245674793)"><path d="M18.01 63.01 C16.74 61.94, 15.99 60.15, 15.29 59.99 M17.99 63.23 C17.29 61.89, 16.25 61.03, 15.5 59.69" stroke="#000000" stroke-width="2" fill="none"></path></g><g transform="translate(932.1095689574277 392.8847980711819) rotate(0 9.729262089845662 34.16695245674793)"><path d="M15.17 64.01 C15 62.53, 15.35 60.36, 15.29 59.99 M15.15 64.22 C15.39 62.59, 15.27 61.4, 15.5 59.69" stroke="#000000" stroke-width="2" fill="none"></path></g></g><g stroke-linecap="round" transform="translate(1366.0995044953881 1042.2473382003532) rotate(0 64 18.5)"><path d="M0.27 0.41 C35 -1.81, 69.65 1.75, 128.03 1.67 M-0.46 -0.26 C40.09 0.55, 79.2 0.16, 128.12 0.08 M126.25 0.6 C127.93 13.15, 127.34 28.87, 129.65 37.2 M128.64 0.91 C128.6 9.95, 128.12 20.88, 128.66 37.29 M127.21 35.63 C90.73 37.62, 51.63 37.01, -0.5 37.88 M127.74 37.17 C98.27 38.14, 70.87 36.73, 0.31 36.06 M-0.43 36.24 C-1.69 24.48, 2.03 13.55, 1.64 0.39 M0.88 36.52 C-0.64 24.55, -0.27 13.19, 0.19 0.47" stroke="#862e9c" stroke-width="2" fill="none"></path></g><g transform="translate(1394.0995044953881 1048.7473382003532) rotate(0 36 12)"><text x="36" y="19" font-family="Cascadia, Segoe UI Emoji" font-size="20px" fill="#862e9c" text-anchor="middle" style="white-space: pre;" direction="ltr">cancha</text></g><g stroke-linecap="round" transform="translate(1395.6044831330987 865.2174663740898) rotate(0 63.99999999999994 18.5)"><path d="M1.61 1.94 C31.76 0.38, 61.15 -0.58, 126.05 -0.57 M0.07 -0.55 C42.05 1.36, 84.84 1.77, 127.79 0.27 M127.41 -0.9 C126.03 8.01, 127.57 16.11, 127.36 38.65 M128.66 0.61 C127.43 14, 128.16 25.73, 128.32 37.81 M126.96 38.63 C98.33 36.95, 63.77 37.94, -0.01 35.06 M128.72 36.86 C96.48 35.99, 65.35 35.96, 0.56 36.44 M1.5 35.83 C0.12 26.15, -0.35 17.41, 1.06 -0.57 M0.76 37.62 C0.96 23.77, 0.57 10.35, -0.37 -0.75" stroke="#862e9c" stroke-width="2" fill="none"></path></g><g transform="translate(1406.1044831330987 871.7174663740898) rotate(0 53.49999999999994 12)"><text x="53.5" y="19" font-family="Cascadia, Segoe UI Emoji" font-size="20px" fill="#862e9c" text-anchor="middle" style="white-space: pre;" direction="ltr">municipio</text></g><g stroke-linecap="round" transform="translate(1189.0696326691248 1038.3133410486585) rotate(0 64 18.5)"><path d="M-0.25 -1.08 C32.46 -0.74, 67.53 -1.75, 129.95 0.75 M0.67 0.35 C34.37 1.58, 69.29 1.27, 127.32 0.72 M126.56 1.78 C126.56 11.94, 128.25 21.09, 128.99 38.93 M127.55 -0.09 C128.02 14.53, 128.29 27.75, 127.59 36.3 M129.87 36.85 C98.72 39.52, 66.77 36.66, 1.89 37.37 M127.65 36.4 C89.27 37.43, 51.74 36.7, -0.67 37.02 M-0.72 38.86 C1.41 24.23, 0.67 15.76, -1.06 -1.55 M0.35 37.21 C0.44 24.33, 0.41 9.6, -0.38 0.35" stroke="#862e9c" stroke-width="2" fill="none"></path></g><g transform="translate(1199.5696326691248 1044.8133410486585) rotate(0 53.5 12)"><text x="53.5" y="19" font-family="Cascadia, Segoe UI Emoji" font-size="20px" fill="#862e9c" text-anchor="middle" style="white-space: pre;" direction="ltr">deportivo</text></g><g stroke-linecap="round"><g transform="translate(1313.581962821389 875.9635134818533) rotate(0 43.09535460879857 4.390395396955341)"><path d="M0.06 0.3 C-0.02 0.3, -16.53 -1.27, -0.91 0.32 C14.72 1.91, 77.76 8.31, 93.82 9.83 M-1.36 -0.59 C-1.04 -1, -14.35 -3.59, 1.33 -1.64 C17.01 0.32, 76.93 9.15, 92.74 11.14" stroke="#364fc7" stroke-width="2" fill="none"></path></g><g transform="translate(1313.581962821389 875.9635134818533) rotate(0 43.09535460879857 4.390395396955341)"><path d="M63.9 15.95 C71.71 14.77, 78.95 15.73, 92.06 9.79 M62.58 16.89 C72.08 15.22, 79.84 14.29, 93.64 10.7" stroke="#364fc7" stroke-width="2" fill="none"></path></g><g transform="translate(1313.581962821389 875.9635134818533) rotate(0 43.09535460879857 4.390395396955341)"><path d="M66.7 -4.38 C73.82 -0.16, 80.32 6.2, 92.06 9.79 M65.38 -3.44 C74.04 0.42, 81.04 4.99, 93.64 10.7" stroke="#364fc7" stroke-width="2" fill="none"></path></g></g><g stroke-linecap="round"><g transform="translate(1317.5159599730837 1045.1253910047271) rotate(0 26.239478582485617 7.853531622481967)"><path d="M0.17 0 C0.82 -0.06, -5.99 -3.18, 3.13 -0.53 C12.26 2.12, 46.37 13.29, 54.92 15.9 M-1.2 -1.05 C-0.53 -0.93, -6.41 -2.33, 2.8 0.73 C12.01 3.79, 45.49 14.78, 54.07 17.3" stroke="#364fc7" stroke-width="2" fill="none"></path></g><g transform="translate(1317.5159599730837 1045.1253910047271) rotate(0 26.239478582485617 7.853531622481967)"><path d="M26.4 20.5 C32.03 17.96, 39.69 16.83, 53.01 18.35 M25.54 17.58 C34.05 18.36, 41.78 17.49, 53.39 17.06" stroke="#364fc7" stroke-width="2" fill="none"></path></g><g transform="translate(1317.5159599730837 1045.1253910047271) rotate(0 26.239478582485617 7.853531622481967)"><path d="M32.07 2.42 C36.33 4.14, 42.66 7.26, 53.01 18.35 M31.2 -0.5 C38.08 5.34, 44.23 9.52, 53.39 17.06" stroke="#364fc7" stroke-width="2" fill="none"></path></g></g><g stroke-linecap="round"><g transform="translate(1409.96489303791 891.6995020886324) rotate(0 -60.370669046817056 71.62447561696962)"><path d="M-0.54 0.74 C-0.69 0.97, 21.06 -24.43, -0.78 1.15 C-22.61 26.74, -109.81 128.61, -131.54 154.26 M1.37 0.09 C1.6 0.04, 23.79 -26.18, 1.53 -0.36 C-20.73 25.45, -110.16 128.93, -132.17 154.98" stroke="#364fc7" stroke-width="2" fill="none"></path></g><g transform="translate(1409.96489303791 891.6995020886324) rotate(0 -60.370669046817056 71.62447561696962)"><path d="M-120.4 125.6 C-123.02 135.93, -130.08 145.29, -132.77 156.87 M-120.74 126.56 C-125.05 135.93, -128.59 143.28, -131.99 154.69" stroke="#364fc7" stroke-width="2" fill="none"></path></g><g transform="translate(1409.96489303791 891.6995020886324) rotate(0 -60.370669046817056 71.62447561696962)"><path d="M-104.81 138.94 C-112.21 145.09, -124.09 150.33, -132.77 156.87 M-105.15 139.9 C-114.03 145.48, -122.08 148.98, -131.99 154.69" stroke="#364fc7" stroke-width="2" fill="none"></path></g></g><g transform="translate(316.50638486498286 640.8799768877818) rotate(0 111.5 37)"><text x="0" y="17.666666666666668" font-family="Virgil, Segoe UI Emoji" font-size="20px" fill="#d9480f" text-anchor="start" style="white-space: pre;" direction="ltr">Estadístico</text><text x="0" y="42.333333333333336" font-family="Virgil, Segoe UI Emoji" font-size="20px" fill="#d9480f" text-anchor="start" style="white-space: pre;" direction="ltr">Organizador de evento</text><text x="0" y="67" font-family="Virgil, Segoe UI Emoji" font-size="20px" fill="#d9480f" text-anchor="start" style="white-space: pre;" direction="ltr">Capitán de equipo</text></g><g stroke-linecap="round"><g transform="translate(461.1507362263365 604.3567240205864) rotate(0 -8.381595031280172 17.330192384398487)"><path d="M-0.92 -0.09 C-3.54 5.89, -14.11 29.93, -16.78 35.84 M0.79 -1.18 C-1.87 4.42, -14.49 27.6, -17.56 33.89" stroke="#000000" stroke-width="2" fill="none"></path></g><g transform="translate(461.1507362263365 604.3567240205864) rotate(0 -8.381595031280172 17.330192384398487)"><path d="M-15.16 14.87 C-15.02 18.74, -16.38 22.82, -16.8 34.87 M-15.93 14.6 C-14.96 21.15, -17.49 27.74, -17.04 34.51" stroke="#000000" stroke-width="2" fill="none"></path></g><g transform="translate(461.1507362263365 604.3567240205864) rotate(0 -8.381595031280172 17.330192384398487)"><path d="M-3.2 21.07 C-5.6 23.53, -9.52 26.28, -16.8 34.87 M-3.96 20.8 C-6.81 25.26, -13.18 29.86, -17.04 34.51" stroke="#000000" stroke-width="2" fill="none"></path></g></g><g stroke-linecap="round" transform="translate(954.2563791810583 10) rotate(0 182.5 41)"><path d="M1.21 0.69 C77.73 0.51, 158.04 0.21, 364.94 -0.54 M-0.35 0.06 C98.73 -2.44, 198.01 -1.74, 365.17 -0.53 M364.96 0.56 C363.71 16.26, 364.63 33.67, 365.91 83.87 M365.82 -0.4 C364.7 17.23, 364.61 33.25, 365.13 81.64 M364.68 81.53 C253.18 83.8, 142.5 82.38, -1 82.43 M364.55 82.09 C239.89 80.4, 114.09 79.32, 0.23 81.66 M1.09 81.02 C1.22 57.16, -1.03 32, -1.66 1.27 M-0.18 81.35 C-0.8 59.95, -0.2 36.64, 0.58 -0.26" stroke="#d9480f" stroke-width="2" fill="none"></path></g><g transform="translate(966.2563791810583 15) rotate(0 170.5 36)"><text x="170.5" y="19" font-family="Cascadia, Segoe UI Emoji" font-size="20px" fill="#d9480f" text-anchor="middle" style="white-space: pre;" direction="ltr">Roles generales del sistema. </text><text x="170.5" y="43" font-family="Cascadia, Segoe UI Emoji" font-size="20px" fill="#d9480f" text-anchor="middle" style="white-space: pre;" direction="ltr">No son los mismos que los de </text><text x="170.5" y="67" font-family="Cascadia, Segoe UI Emoji" font-size="20px" fill="#d9480f" text-anchor="middle" style="white-space: pre;" direction="ltr">un evento.</text></g><g stroke-linecap="round"><g transform="translate(1101.5306880334633 81.00722201580624) rotate(0 -0.551951321717354 34.63282491469057)"><path d="M-1.07 0.86 C-0.99 12.38, -0.79 57.98, -0.47 69.01 M0.56 0.26 C0.53 11.47, -1.66 56.09, -1.67 67.34" stroke="#d9480f" stroke-width="2" fill="none"></path></g><g transform="translate(1101.5306880334633 81.00722201580624) rotate(0 -0.551951321717354 34.63282491469057)"><path d="M-9.72 38.09 C-7.65 46.63, -8.87 51.73, -3.36 65.58 M-10.71 38.25 C-10.11 44.58, -6.61 51.29, -2.66 67.84" stroke="#d9480f" stroke-width="2" fill="none"></path></g><g transform="translate(1101.5306880334633 81.00722201580624) rotate(0 -0.551951321717354 34.63282491469057)"><path d="M10.79 38.66 C8.34 46.89, 2.6 51.86, -3.36 65.58 M9.81 38.81 C5.63 45.14, 4.36 51.71, -2.66 67.84" stroke="#d9480f" stroke-width="2" fill="none"></path></g></g><g stroke-linecap="round" transform="translate(1093.3236015039668 353.5911362444755) rotate(0 55.04251183565242 30)"><path d="M1.18 -1.26 C21.55 1.31, 46.45 2.16, 111.4 -0.83 M-0.39 0.6 C32.83 -0.57, 64.41 -0.46, 109.11 -0.38 M110.7 -0.76 C111.61 18.11, 110.53 37.83, 110.37 61.34 M110.65 0.41 C109.17 15.99, 109.11 33.41, 109.76 59.01 M110.4 61.15 C81.22 59.99, 47.34 59.19, -1.9 60.75 M109.48 59.72 C66.75 59.32, 23.97 60.44, 0.73 59.93 M1.32 60.64 C2.03 46.89, 1.37 34.74, -1.32 -1.02 M-0.73 60.83 C0.5 47.91, -0.15 34.61, -0.32 0.92" stroke="#d9480f" stroke-width="2" fill="none"></path></g><g transform="translate(1106.8661133396192 358.5911362444755) rotate(0 41.5 25)"><text x="41.5" y="18" font-family="Virgil, Segoe UI Emoji" font-size="20px" fill="#d9480f" text-anchor="middle" style="white-space: pre;" direction="ltr">Ligas o </text><text x="41.5" y="43" font-family="Virgil, Segoe UI Emoji" font-size="20px" fill="#d9480f" text-anchor="middle" style="white-space: pre;" direction="ltr">torneos</text></g><g stroke-linecap="round"><g transform="translate(1089.8008001178057 377.369508076534) rotate(0 -37.14176679703348 -6.209900346849672)"><path d="M-1.18 1.15 C-13.63 -0.93, -61.9 -9.7, -74.12 -12.06 M0.4 0.71 C-12.19 -1.71, -62.09 -11.54, -74.68 -13.57" stroke="#d9480f" stroke-width="2" fill="none"></path></g><g transform="translate(1089.8008001178057 377.369508076534) rotate(0 -37.14176679703348 -6.209900346849672)"><path d="M-43.19 -17.4 C-53.47 -16.62, -65.26 -14.68, -76.36 -12.74 M-45 -18.73 C-52.1 -16.83, -60.82 -15.87, -74.67 -14.54" stroke="#d9480f" stroke-width="2" fill="none"></path></g><g transform="translate(1089.8008001178057 377.369508076534) rotate(0 -37.14176679703348 -6.209900346849672)"><path d="M-46.86 2.79 C-55.93 -3.42, -66.45 -8.52, -76.36 -12.74 M-48.67 1.46 C-54.81 -1.89, -62.58 -6.15, -74.67 -14.54" stroke="#d9480f" stroke-width="2" fill="none"></path></g></g><g stroke-linecap="round" transform="translate(851.4541158280806 500.1200549129026) rotate(0 206.49999999999997 30)"><path d="M0.73 0.43 C136.27 0.29, 273.4 -0.82, 412.77 0.14 M0.19 0.44 C145.14 2.35, 289.55 2.35, 413.1 -0.43 M412.95 -1.85 C412.61 23.37, 412.81 44.69, 411.23 60.88 M413.36 0.95 C413.69 20.37, 414.4 43.12, 412.16 59.88 M412.45 59.06 C309.81 58.06, 208.1 57.25, -0.03 59.44 M413.26 60.21 C271.02 62.11, 128.17 62.31, 0.22 60.22 M-1.17 59.45 C0.2 38.72, -0.28 16.42, 1.95 -0.72 M-0.17 60.75 C0.08 41.48, -0.35 23.71, 0.03 1" stroke="#d9480f" stroke-width="2" fill="none"></path></g><g transform="translate(870.4541158280806 505.1200549129026) rotate(0 187.5 25)"><text x="187.5" y="18" font-family="Virgil, Segoe UI Emoji" font-size="20px" fill="#d9480f" text-anchor="middle" style="white-space: pre;" direction="ltr">La forma en que se juega el evento. </text><text x="187.5" y="43" font-family="Virgil, Segoe UI Emoji" font-size="20px" fill="#d9480f" text-anchor="middle" style="white-space: pre;" direction="ltr">Ida y vuelta, solo ida, cosas así.</text></g></svg>